<?xml version="1.0" encoding="UTF-8" standalone="no"?>
<svg
   width="246.65561"
   height="97.483246"
   id="svg83918"
   version="1.1"
   inkscape:version="1.3.2 (091e20e, 2023-11-25, custom)"
   sodipodi:docname="smib.svg"
   xmlns:inkscape="http://www.inkscape.org/namespaces/inkscape"
   xmlns:sodipodi="http://sodipodi.sourceforge.net/DTD/sodipodi-0.dtd"
   xmlns="http://www.w3.org/2000/svg"
   xmlns:svg="http://www.w3.org/2000/svg"
   xmlns:rdf="http://www.w3.org/1999/02/22-rdf-syntax-ns#"
   xmlns:cc="http://creativecommons.org/ns#"
   xmlns:dc="http://purl.org/dc/elements/1.1/"
   xmlns:ns0="http://www.iki.fi/pav/software/textext/">
  <sodipodi:namedview
     id="base"
     pagecolor="#ffffff"
     bordercolor="#666666"
     borderopacity="1.0"
     inkscape:pageopacity="0.0"
     inkscape:pageshadow="2"
     inkscape:zoom="3.959798"
     inkscape:cx="130.30968"
     inkscape:cy="48.866129"
     inkscape:document-units="px"
     inkscape:current-layer="layer1"
     showgrid="false"
     fit-margin-top="0"
     fit-margin-left="0"
     fit-margin-right="0"
     fit-margin-bottom="0"
     inkscape:window-width="2048"
     inkscape:window-height="1082"
     inkscape:window-x="-6"
     inkscape:window-y="272"
     inkscape:window-maximized="1"
     inkscape:object-nodes="true"
     objecttolerance="10.0"
     gridtolerance="10.0"
     guidetolerance="10.0"
     inkscape:pagecheckerboard="0"
     inkscape:showpageshadow="2"
     inkscape:deskcolor="#d1d1d1" />
  <defs
     id="defs83920">
    <marker
       inkscape:stockid="Arrow2Mend"
       orient="auto"
       refY="0"
       refX="0"
       id="marker7868-5"
       style="overflow:visible">
      <path
         inkscape:connector-curvature="0"
         id="path7870-95"
         style="font-size:12px;fill-rule:evenodd;stroke-width:0.625;stroke-linejoin:round"
         d="M 8.7185878,4.0337352 -2.2072895,0.01601326 8.7185884,-4.0017078 c -1.7454984,2.3720609 -1.7354408,5.6174519 -6e-7,8.035443 z"
         transform="scale(-0.6)" />
    </marker>
    <marker
       inkscape:stockid="marker7868-5o"
       orient="auto"
       refY="0"
       refX="0"
       id="marker7868-5o"
       style="overflow:visible">
      <path
         inkscape:connector-curvature="0"
         id="path17013"
         style="font-size:12px;fill:#ff0000;fill-rule:evenodd;stroke:#ff0000;stroke-width:0.625;stroke-linejoin:round"
         d="M 8.7185878,4.0337352 -2.2072895,0.01601326 8.7185884,-4.0017078 c -1.7454984,2.3720609 -1.7354408,5.6174519 -6e-7,8.035443 z"
         transform="scale(-0.6)" />
    </marker>
    <marker
       inkscape:stockid="Arrow2Mend"
       orient="auto"
       refY="0"
       refX="0"
       id="marker7868-5-2"
       style="overflow:visible">
      <path
         inkscape:connector-curvature="0"
         id="path7870-95-2"
         style="font-size:12px;fill-rule:evenodd;stroke-width:0.625;stroke-linejoin:round"
         d="M 8.7185878,4.0337352 -2.2072895,0.01601326 8.7185884,-4.0017078 c -1.7454984,2.3720609 -1.7354408,5.6174519 -6e-7,8.035443 z"
         transform="scale(-0.6)" />
    </marker>
  </defs>
  <metadata
     id="metadata83923">
    <rdf:RDF>
      <cc:Work
         rdf:about="">
        <dc:format>image/svg+xml</dc:format>
        <dc:type
           rdf:resource="http://purl.org/dc/dcmitype/StillImage" />
      </cc:Work>
    </rdf:RDF>
  </metadata>
  <g
     transform="translate(-149.46609,-277.17706)"
     id="layer1"
     inkscape:groupmode="layer"
     inkscape:label="Layer 1">
    <text
       xml:space="preserve"
       style="font-style:normal;font-variant:normal;font-weight:normal;font-stretch:normal;line-height:0%;font-family:'Latin Modern Sans';-inkscape-font-specification:'Latin Modern Sans';letter-spacing:0px;word-spacing:0px;fill:#ffffff;fill-opacity:1;stroke:none"
       x="236.35274"
       y="333.64978"
       id="text19821"><tspan
         sodipodi:role="line"
         id="tspan19823"
         x="236.35274"
         y="333.64978"
         style="font-size:7.75071px;line-height:1.25">Carga</tspan></text>
    <g
       id="g24485"
       transform="matrix(0.5625,0,0,-0.5625,-143.7352,868.86773)"
       xml:space="preserve"
       stroke-miterlimit="10.433"
       font-style="normal"
       font-variant="normal"
       font-weight="normal"
       font-stretch="normal"
       font-size-adjust="none"
       letter-spacing="normal"
       word-spacing="normal"
       ns0:text="$$ \\sf X_s = 0.1 \\Omega$$"
       ns0:preamble="/home/jmmauricio/ink_preamble.tex"
       style="font-style:normal;font-variant:normal;font-weight:normal;font-stretch:normal;letter-spacing:normal;word-spacing:normal;text-anchor:start;display:inline;fill:none;stroke:#000000;stroke-width:2;stroke-linecap:butt;stroke-linejoin:miter;stroke-miterlimit:10.433;stroke-dasharray:none;stroke-dashoffset:0;stroke-opacity:1"><polygon
         style="fill:#000000;stroke-width:0"
         points="374.79,707.12 376.94,710.16 379.14,707.12 380.18,707.12 377.36,710.76 379.76,714.02 378.81,714.02 376.94,711.43 375.01,714.02 373.97,714.02 376.51,710.76 373.83,707.12 "
         id="polygon24487" /><path
         style="fill:#000000;stroke-width:0"
         inkscape:connector-curvature="0"
         d="m 382.88,708.61 -0.05,0.01 -0.04,0.02 -0.04,0.02 -0.04,0.01 -0.05,0.02 -0.04,0.01 -0.04,0.01 -0.04,0.01 -0.03,0.01 -0.04,0.01 -0.04,0.01 -0.03,0.01 -0.04,0.01 -0.04,0.01 h -0.03 l -0.03,0.01 h -0.04 l -0.03,0.01 h -0.03 l -0.03,0.01 h -0.06 l -0.06,0.01 h -0.05 -0.06 -0.05 -0.05 c -0.17,0 -1.22,0 -1.22,-0.92 0,-0.33 0.18,-0.51 0.27,-0.59 0.24,-0.25 0.54,-0.3 0.91,-0.37 0.32,-0.06 0.7,-0.13 0.7,-0.47 0,-0.44 -0.58,-0.44 -0.68,-0.44 -0.44,0 -0.86,0.16 -1.14,0.36 l -0.1,-0.52 c 0.24,-0.12 0.67,-0.31 1.24,-0.31 0.32,0 0.62,0.05 0.88,0.24 0.26,0.19 0.34,0.5 0.34,0.73 0,0.13 -0.01,0.4 -0.3,0.67 -0.26,0.22 -0.51,0.27 -0.85,0.34 -0.41,0.07 -0.73,0.13 -0.73,0.44 0,0.4 0.51,0.4 0.61,0.4 0.4,0 0.71,-0.09 1.06,-0.27 z"
         id="path24489" /><path
         style="fill:#000000;stroke-width:0"
         inkscape:connector-curvature="0"
         d="m 393.28,710.37 h 0.02 0.03 0.03 l 0.02,0.01 h 0.01 0.02 0.01 0.01 0.02 l 0.01,0.01 h 0.02 0.01 l 0.01,0.01 h 0.01 l 0.01,0.01 h 0.02 l 0.01,0.01 0.01,0.01 0.01,0.01 v 0.01 l 0.01,0.01 h 0.01 v 0.01 0 l 0.01,0.01 v 0.01 0 0.01 l 0.01,0.01 v 0 0.01 0.01 0.01 0.01 0 0.01 0.01 c 0,0.2 -0.19,0.2 -0.32,0.2 h -5.96 c -0.14,0 -0.33,0 -0.33,-0.2 0,-0.2 0.19,-0.2 0.34,-0.2 z"
         id="path24491" /><path
         style="fill:#000000;stroke-width:0"
         inkscape:connector-curvature="0"
         d="m 393.29,708.45 h 0.01 0.01 0.03 0.03 0.01 0.02 0.01 0.01 0.02 l 0.01,0.01 h 0.01 0.02 l 0.01,0.01 h 0.01 l 0.01,0.01 h 0.02 l 0.01,0.01 h 0.01 l 0.01,0.01 0.01,0.01 v 0.01 h 0.01 v 0.01 l 0.01,0.01 v 0 0.01 h 0.01 v 0.01 0.01 0 l 0.01,0.01 v 0.01 0 0.01 0.01 0.01 0.01 0.01 0.01 c 0,0.19 -0.19,0.19 -0.33,0.19 h -5.94 c -0.15,0 -0.34,0 -0.34,-0.19 0,-0.2 0.19,-0.2 0.33,-0.2 z"
         id="path24493" /><path
         style="fill:#000000;stroke-width:0"
         inkscape:connector-curvature="0"
         d="m 401.5,710.36 v 0.15 0.15 0.16 l -0.01,0.15 -0.01,0.16 -0.01,0.16 -0.02,0.16 -0.02,0.16 -0.02,0.16 -0.04,0.16 -0.03,0.17 -0.05,0.15 -0.05,0.16 -0.02,0.08 -0.03,0.08 -0.04,0.08 -0.03,0.07 -0.04,0.08 -0.03,0.08 c -0.41,0.74 -1.1,0.98 -1.61,0.98 l -0.01,-0.61 c 0.78,0 1.04,-0.75 1.11,-0.93 0.19,-0.56 0.19,-1.22 0.19,-1.84 0,-0.65 0,-1.28 -0.18,-1.9 -0.26,-0.91 -0.79,-1.07 -1.11,-1.07 v 0 c -0.51,0 -0.92,0.38 -1.12,1.09 -0.16,0.57 -0.17,1.11 -0.17,1.88 0,0.63 0,1.23 0.17,1.77 0.06,0.19 0.31,1 1.11,1 l 0.01,0.61 c -0.58,0 -1.28,-0.27 -1.69,-1.15 -0.33,-0.73 -0.37,-1.55 -0.37,-2.35 0,-0.78 0.04,-1.51 0.33,-2.23 0.4,-0.96 1.16,-1.22 1.72,-1.22 0.73,0 1.36,0.4 1.68,1.09 0.29,0.65 0.39,1.3 0.39,2.36 z"
         id="path24495" /><path
         style="fill:#000000;stroke-width:0"
         inkscape:connector-curvature="0"
         d="m 403.85,707.65 v 0.03 0.02 l -0.01,0.03 v 0.03 l -0.01,0.02 -0.01,0.03 v 0.02 l -0.01,0.03 -0.01,0.02 -0.02,0.02 -0.01,0.02 -0.01,0.02 -0.02,0.03 -0.01,0.02 -0.02,0.01 -0.02,0.02 -0.02,0.02 -0.02,0.02 -0.01,0.01 -0.03,0.02 -0.02,0.01 -0.02,0.01 -0.02,0.02 -0.03,0.01 -0.02,0.01 h -0.02 l -0.03,0.01 -0.02,0.01 h -0.03 l -0.03,0.01 h -0.02 -0.03 c -0.29,0 -0.53,-0.24 -0.53,-0.53 0,-0.29 0.24,-0.53 0.53,-0.53 0.29,0 0.53,0.24 0.53,0.53 z"
         id="path24497" /><path
         style="fill:#000000;stroke-width:0"
         inkscape:connector-curvature="0"
         d="m 407.68,713.86 h -0.2 c -0.59,-0.61 -1.41,-0.64 -1.89,-0.65 v -0.58 c 0.33,0.01 0.81,0.03 1.3,0.24 v -5.17 h -1.24 v -0.58 h 3.27 v 0.58 h -1.24 z"
         id="path24499" /><path
         style="fill:#000000;stroke-width:0"
         inkscape:connector-curvature="0"
         d="m 416.42,707.83 h -0.84 c -0.12,0 -0.24,-0.01 -0.36,-0.01 h -0.53 c 0.14,0.56 0.42,1.03 0.78,1.64 0.41,0.69 0.83,1.42 0.83,2.25 0,1.39 -1.34,2.53 -3.02,2.53 -1.72,0 -3.04,-1.15 -3.04,-2.53 0,-0.83 0.41,-1.54 0.93,-2.41 0.37,-0.63 0.58,-1.03 0.69,-1.48 h -0.53 c -0.12,0 -0.24,0.01 -0.36,0.01 h -0.85 v -0.71 h 2.44 c -0.01,0.5 -0.09,1.03 -0.63,2.15 -0.4,0.81 -0.8,1.61 -0.8,2.44 0,1.13 0.95,1.92 2.14,1.92 1.22,0 2.15,-0.81 2.15,-1.92 0,-0.78 -0.35,-1.53 -0.73,-2.32 -0.42,-0.85 -0.7,-1.47 -0.71,-2.27 h 2.44 z"
         id="path24501" /></g>
    <g
       id="g60949"
       transform="matrix(0.5625,0,0,-0.5625,107.62768,874.80179)"
       xml:space="preserve"
       stroke-miterlimit="10.433"
       font-style="normal"
       font-variant="normal"
       font-weight="normal"
       font-stretch="normal"
       font-size-adjust="none"
       letter-spacing="normal"
       word-spacing="normal"
       ns0:text="$$ \\sf   U_c $$"
       ns0:preamble="/home/jmmauricio/ink_preamble.tex"
       style="font-style:normal;font-variant:normal;font-weight:normal;font-stretch:normal;letter-spacing:normal;word-spacing:normal;text-anchor:start;display:inline;fill:none;stroke:#000000;stroke-width:2;stroke-linecap:butt;stroke-linejoin:miter;stroke-miterlimit:10.433;stroke-dasharray:none;stroke-dashoffset:0;stroke-opacity:1"><path
         style="fill:#000000;stroke-width:0"
         inkscape:connector-curvature="0"
         d="m 395.87,714.02 h -0.78 v -4.59 c 0,-1.31 -0.83,-1.97 -1.67,-1.97 -0.82,0 -1.63,0.63 -1.63,1.97 v 4.59 h -0.89 v -4.58 c 0,-1.45 1.17,-2.53 2.51,-2.53 1.33,0 2.46,1.09 2.46,2.53 z"
         id="path60951" /><path
         style="fill:#000000;stroke-width:0"
         inkscape:connector-curvature="0"
         d="m 399.85,706.39 -0.07,-0.04 -0.07,-0.04 -0.06,-0.04 -0.07,-0.03 -0.07,-0.03 -0.07,-0.03 -0.07,-0.03 -0.07,-0.02 -0.07,-0.02 -0.08,-0.02 -0.07,-0.01 -0.08,-0.02 -0.07,-0.01 h -0.08 l -0.08,-0.01 h -0.08 c -0.64,0 -1.02,0.52 -1.02,1.14 0,0.54 0.28,1.16 1.04,1.16 0.47,0 0.7,-0.09 1.05,-0.32 l 0.09,0.5 c -0.41,0.21 -0.59,0.3 -1.14,0.3 -1.04,0 -1.64,-0.84 -1.64,-1.65 0,-0.84 0.67,-1.61 1.61,-1.61 0.49,0 0.91,0.15 1.21,0.32 z"
         id="path60953" /></g>
    <g
       style="font-style:normal;font-variant:normal;font-weight:normal;font-stretch:normal;letter-spacing:normal;word-spacing:normal;text-anchor:start;display:inline;fill:none;stroke:#000000;stroke-width:2;stroke-linecap:butt;stroke-linejoin:miter;stroke-miterlimit:10.433;stroke-dasharray:none;stroke-dashoffset:0;stroke-opacity:1"
       ns0:preamble="/home/jmmauricio/ink_preamble.tex"
       ns0:text="$$ \\sf  \\underline U_n = 0.38/6 kV$$\n "
       word-spacing="normal"
       letter-spacing="normal"
       font-size-adjust="none"
       font-stretch="normal"
       font-weight="normal"
       font-variant="normal"
       font-style="normal"
       stroke-miterlimit="10.433"
       xml:space="preserve"
       transform="matrix(0.5625,0,0,-0.5625,54.392487,877.15538)"
       id="g70144"><path
         id="path70146"
         d="m 369.3,714.02 h -0.78 v -4.59 c 0,-1.31 -0.84,-1.97 -1.67,-1.97 -0.82,0 -1.63,0.63 -1.63,1.97 v 4.59 h -0.89 v -4.58 c 0,-1.45 1.17,-2.53 2.51,-2.53 1.33,0 2.46,1.09 2.46,2.53 z"
         inkscape:connector-curvature="0"
         style="fill:#000000;stroke-width:0" /><line
         id="line70148"
         y2="705.72998"
         x2="370.25"
         y1="705.72998"
         x1="363.39999"
         style="stroke-width:0.398" /><path
         id="path70150"
         d="m 373.48,706.69 v 0.05 0.05 0.06 0.05 l -0.01,0.05 -0.01,0.05 v 0.05 l -0.01,0.04 -0.02,0.05 -0.01,0.05 -0.01,0.04 -0.02,0.05 -0.02,0.04 -0.02,0.05 -0.03,0.04 -0.02,0.04 -0.03,0.03 -0.03,0.04 -0.04,0.03 -0.03,0.04 -0.04,0.03 -0.05,0.03 -0.04,0.02 -0.05,0.03 -0.05,0.02 -0.06,0.02 -0.03,0.01 h -0.03 l -0.03,0.01 -0.03,0.01 h -0.04 l -0.03,0.01 h -0.03 l -0.04,0.01 h -0.04 -0.03 -0.04 -0.04 c -0.4,0 -0.78,-0.16 -1.09,-0.53 v 0.51 h -0.56 v -3.13 h 0.61 v 1.69 c 0,0.45 0.19,1 0.73,1 0.72,0 0.72,-0.48 0.72,-0.68 v -2.01 h 0.6 z"
         inkscape:connector-curvature="0"
         style="fill:#000000;stroke-width:0" /><path
         id="path70152"
         d="m 384.17,710.37 h 0.03 0.03 0.03 l 0.01,0.01 h 0.02 0.01 0.02 0.01 0.02 l 0.01,0.01 h 0.01 0.02 l 0.01,0.01 h 0.01 l 0.01,0.01 h 0.01 l 0.01,0.01 0.01,0.01 0.01,0.01 0.01,0.01 0.01,0.01 v 0 l 0.01,0.01 v 0 0.01 l 0.01,0.01 v 0 0.01 0.01 0 l 0.01,0.01 v 0.01 0.01 0.01 0 0.01 0.01 c 0,0.2 -0.19,0.2 -0.33,0.2 h -5.96 c -0.14,0 -0.33,0 -0.33,-0.2 0,-0.2 0.19,-0.2 0.34,-0.2 z"
         inkscape:connector-curvature="0"
         style="fill:#000000;stroke-width:0" /><path
         id="path70154"
         d="m 384.18,708.45 h 0.02 0.01 0.03 0.02 0.02 0.01 0.02 0.01 0.01 l 0.02,0.01 h 0.01 0.01 l 0.02,0.01 h 0.01 l 0.01,0.01 h 0.01 l 0.01,0.01 h 0.01 l 0.01,0.01 0.01,0.01 0.01,0.01 h 0.01 v 0.01 0.01 h 0.01 v 0.01 0 l 0.01,0.01 v 0.01 0 0.01 0.01 h 0.01 v 0.01 0.01 0.01 0.01 0.01 0.01 c 0,0.19 -0.19,0.19 -0.34,0.19 h -5.94 c -0.15,0 -0.34,0 -0.34,-0.19 0,-0.2 0.19,-0.2 0.33,-0.2 z"
         inkscape:connector-curvature="0"
         style="fill:#000000;stroke-width:0" /><path
         id="path70156"
         d="m 392.4,710.36 v 0.15 0.15 l -0.01,0.16 v 0.15 l -0.01,0.16 -0.01,0.16 -0.02,0.16 -0.02,0.16 -0.03,0.16 -0.03,0.16 -0.04,0.17 -0.04,0.15 -0.05,0.16 -0.03,0.08 -0.03,0.08 -0.03,0.08 -0.03,0.07 -0.04,0.08 -0.04,0.08 c -0.4,0.74 -1.09,0.98 -1.6,0.98 l -0.01,-0.61 c 0.78,0 1.04,-0.75 1.11,-0.93 0.18,-0.56 0.18,-1.22 0.18,-1.84 0,-0.65 0,-1.28 -0.17,-1.9 -0.26,-0.91 -0.79,-1.07 -1.11,-1.07 v 0 c -0.52,0 -0.92,0.38 -1.12,1.09 -0.16,0.57 -0.17,1.11 -0.17,1.88 0,0.63 0,1.23 0.17,1.77 0.06,0.19 0.3,1 1.11,1 l 0.01,0.61 c -0.59,0 -1.28,-0.27 -1.69,-1.15 -0.33,-0.73 -0.38,-1.55 -0.38,-2.35 0,-0.78 0.04,-1.51 0.34,-2.23 0.4,-0.96 1.15,-1.22 1.72,-1.22 0.73,0 1.35,0.4 1.67,1.09 0.3,0.65 0.4,1.3 0.4,2.36 z"
         inkscape:connector-curvature="0"
         style="fill:#000000;stroke-width:0" /><path
         id="path70158"
         d="m 394.74,707.65 v 0.03 0.02 0.03 l -0.01,0.03 v 0.02 l -0.01,0.03 -0.01,0.02 -0.01,0.03 -0.01,0.02 -0.01,0.02 -0.01,0.02 -0.02,0.02 -0.01,0.03 -0.02,0.02 -0.01,0.01 -0.02,0.02 -0.02,0.02 -0.02,0.02 -0.02,0.01 -0.02,0.02 -0.02,0.01 -0.02,0.01 -0.02,0.02 -0.03,0.01 -0.02,0.01 h -0.03 l -0.02,0.01 -0.03,0.01 h -0.02 l -0.03,0.01 h -0.03 -0.02 c -0.29,0 -0.53,-0.24 -0.53,-0.53 0,-0.29 0.24,-0.53 0.53,-0.53 0.29,0 0.52,0.24 0.52,0.53 z"
         inkscape:connector-curvature="0"
         style="fill:#000000;stroke-width:0" /><path
         id="path70160"
         d="m 396.52,712.23 0.03,0.07 0.03,0.06 0.03,0.06 0.03,0.06 0.04,0.05 0.03,0.06 0.04,0.05 0.04,0.05 0.05,0.05 0.04,0.04 0.05,0.05 0.04,0.04 0.05,0.04 0.05,0.04 0.05,0.03 0.05,0.04 0.05,0.03 0.05,0.03 0.06,0.03 0.05,0.02 0.06,0.03 0.05,0.02 0.06,0.02 0.05,0.02 0.06,0.01 0.06,0.02 0.05,0.01 0.06,0.01 h 0.06 l 0.05,0.01 h 0.06 0.06 c 0.52,0 1,-0.29 1,-0.93 0,-0.61 -0.4,-1.19 -1.01,-1.33 -0.06,-0.01 -0.08,-0.01 -0.79,-0.07 v -0.61 h 0.71 c 1.07,0 1.29,-0.92 1.29,-1.42 0,-0.77 -0.45,-1.41 -1.22,-1.41 -0.69,0 -1.47,0.35 -1.91,1.03 l -0.11,-0.6 c 0.73,-0.93 1.64,-1.03 2.04,-1.03 1.21,0 2.09,0.96 2.09,2 0,0.91 -0.7,1.52 -1.37,1.73 0.75,0.41 1.1,1.08 1.1,1.71 0,0.86 -0.83,1.51 -1.81,1.51 -0.77,0 -1.49,-0.4 -1.91,-1.09 z"
         inkscape:connector-curvature="0"
         style="fill:#000000;stroke-width:0" /><path
         id="path70162"
         d="m 403.77,710.65 0.08,0.03 0.08,0.03 0.07,0.03 0.07,0.04 0.07,0.03 0.07,0.04 0.06,0.04 0.06,0.04 0.06,0.04 0.05,0.04 0.05,0.05 0.05,0.04 0.05,0.05 0.04,0.05 0.04,0.05 0.04,0.05 0.04,0.05 0.03,0.05 0.03,0.05 0.03,0.05 0.02,0.05 0.03,0.06 0.02,0.05 0.01,0.05 0.02,0.05 0.01,0.06 0.02,0.05 v 0.05 l 0.01,0.05 0.01,0.05 v 0.05 0.05 c 0,0.93 -0.85,1.74 -1.92,1.74 l -0.01,-0.58 c 0.79,0 1.23,-0.51 1.23,-1.16 0,-0.71 -0.5,-1.17 -1.22,-1.17 l -0.01,-0.61 c 0.58,0 1.26,-0.39 1.26,-1.42 0,-0.96 -0.61,-1.41 -1.25,-1.41 v 0 c -0.69,0 -1.26,0.48 -1.26,1.41 0,1.05 0.71,1.42 1.25,1.42 l 0.01,0.61 v 0 c -0.77,0 -1.23,0.49 -1.23,1.17 0,0.69 0.48,1.16 1.22,1.16 l 0.01,0.58 c -1.11,0 -1.93,-0.82 -1.93,-1.74 0,-0.53 0.34,-1.18 1.22,-1.47 -0.71,-0.25 -1.36,-0.87 -1.36,-1.74 0,-1.08 0.92,-2 2.06,-2 1.18,0 2.07,0.95 2.07,2 0,0.91 -0.7,1.51 -1.36,1.74 z"
         inkscape:connector-curvature="0"
         style="fill:#000000;stroke-width:0" /><path
         id="path70164"
         d="m 409.93,714.2 h 0.01 v 0.01 0.01 0 0.01 h 0.01 v 0.01 0.01 l 0.01,0.01 v 0.01 0.01 0.01 h 0.01 v 0.01 0.01 0.01 0 l 0.01,0.01 v 0 0.01 0 0.01 0 0 0.01 0 0 0.01 0 0 0 0 0 0.01 0 c 0,0.11 -0.09,0.2 -0.2,0.2 -0.07,0 -0.14,-0.03 -0.17,-0.09 l -3.45,-9.47 c -0.05,-0.13 -0.05,-0.17 -0.05,-0.18 0,-0.11 0.09,-0.2 0.2,-0.2 0.13,0 0.16,0.07 0.22,0.24 z"
         inkscape:connector-curvature="0"
         style="fill:#000000;stroke-width:0" /><path
         id="path70166"
         d="m 414.67,713.66 -0.04,0.02 -0.05,0.02 -0.04,0.01 -0.05,0.02 -0.04,0.01 -0.05,0.01 -0.04,0.02 -0.04,0.01 -0.05,0.01 -0.04,0.01 h -0.04 l -0.03,0.01 -0.04,0.01 h -0.04 l -0.04,0.01 -0.03,0.01 h -0.03 -0.04 l -0.03,0.01 h -0.03 -0.03 -0.03 l -0.02,0.01 h -0.03 -0.02 -0.02 -0.03 -0.02 -0.01 -0.02 -0.02 -0.01 c -1.4,0 -2.66,-1.4 -2.66,-3.54 0,-2.81 1.24,-3.41 2.08,-3.41 v 0.6 c -1.05,0 -1.2,1.46 -1.23,1.79 v 0 c 0,0.14 0,0.16 0.01,0.28 0,0.73 0.45,1.53 1.27,1.53 0.48,0 0.76,-0.25 0.96,-0.62 0.21,-0.37 0.23,-0.71 0.23,-1.16 0,-0.34 0,-0.79 -0.24,-1.2 -0.17,-0.28 -0.43,-0.62 -1,-0.62 v -0.6 c 0.6,0 1.03,0.23 1.42,0.67 0.44,0.51 0.63,0.97 0.63,1.75 0,1.27 -0.65,2.38 -1.61,2.38 -0.32,0 -1.07,-0.07 -1.68,-0.82 0.13,1.6 0.91,2.39 1.83,2.39 0.38,0 0.7,-0.07 1.04,-0.2 z"
         inkscape:connector-curvature="0"
         style="fill:#000000;stroke-width:0" /><polygon
         id="polygon70168"
         points="417.05,708.53 417.85,709.35 419.4,707.12 420.21,707.12 418.32,709.83 419.99,711.54 419.1,711.54 417.08,709.47 417.08,714.02 416.36,714.02 416.36,707.12 417.05,707.12 "
         style="fill:#000000;stroke-width:0" /><path
         id="path70170"
         d="m 426.89,714.02 h -0.78 l -1.32,-3.4 c -0.16,-0.41 -0.91,-2.32 -1,-2.78 h -0.01 c -0.08,0.4 -0.51,1.49 -0.6,1.73 l -1.72,4.45 h -0.92 l 2.71,-6.9 h 0.92 z"
         inkscape:connector-curvature="0"
         style="fill:#000000;stroke-width:0" /></g>
    <g
       id="g79246"
       transform="matrix(0.5625,0,0,-0.5625,-16.912422,865.30216)"
       xml:space="preserve"
       stroke-miterlimit="10.433"
       font-style="normal"
       font-variant="normal"
       font-weight="normal"
       font-stretch="normal"
       font-size-adjust="none"
       letter-spacing="normal"
       word-spacing="normal"
       ns0:text="$ \\sf  \\underline S_n = 1000 kVA $ \\\\ $ \\sf   \\epsilon = 5\\%$"
       ns0:preamble="/home/jmmauricio/ink_preamble.tex"
       style="font-style:normal;font-variant:normal;font-weight:normal;font-stretch:normal;letter-spacing:normal;word-spacing:normal;text-anchor:start;display:inline;fill:none;stroke:#000000;stroke-width:2;stroke-linecap:butt;stroke-linejoin:miter;stroke-miterlimit:10.433;stroke-dasharray:none;stroke-dashoffset:0;stroke-opacity:1"><path
         style="fill:#000000;stroke-width:0"
         inkscape:connector-curvature="0"
         d="m 228.06,713.74 -0.1,0.06 -0.11,0.06 -0.1,0.05 -0.11,0.05 -0.1,0.04 -0.11,0.04 -0.1,0.04 -0.11,0.03 -0.12,0.03 -0.11,0.03 -0.12,0.02 -0.12,0.02 -0.12,0.01 -0.13,0.01 -0.13,0.01 h -0.06 -0.07 c -1.39,0 -2.25,-0.98 -2.25,-1.96 0,-0.43 0.14,-0.84 0.54,-1.26 0.41,-0.45 0.85,-0.57 1.44,-0.71 0.85,-0.21 0.94,-0.23 1.22,-0.48 0.2,-0.17 0.42,-0.5 0.42,-0.93 0,-0.65 -0.55,-1.31 -1.45,-1.31 -0.41,0 -1.31,0.1 -2.14,0.81 l -0.15,-0.81 c 0.87,-0.54 1.67,-0.68 2.3,-0.68 1.31,0 2.23,1 2.23,2.09 0,0.65 -0.31,1.12 -0.53,1.36 -0.47,0.5 -0.8,0.59 -1.71,0.82 -0.58,0.14 -0.74,0.18 -1.04,0.43 -0.07,0.06 -0.35,0.35 -0.35,0.79 0,0.59 0.54,1.18 1.46,1.18 0.83,0 1.31,-0.33 1.68,-0.63 z"
         id="path79248" /><line
         style="stroke-width:0.398"
         x1="223.42999"
         y1="705.72998"
         x2="228.97"
         y2="705.72998"
         id="line79250" /><path
         style="fill:#000000;stroke-width:0"
         inkscape:connector-curvature="0"
         d="m 232.21,706.69 -0.01,0.05 v 0.05 0.06 0.05 l -0.01,0.05 -0.01,0.05 v 0.05 l -0.01,0.04 -0.01,0.05 -0.02,0.05 -0.01,0.04 -0.02,0.05 -0.02,0.04 -0.02,0.05 -0.03,0.04 -0.02,0.04 -0.03,0.03 -0.03,0.04 -0.04,0.03 -0.03,0.04 -0.04,0.03 -0.05,0.03 -0.04,0.02 -0.05,0.03 -0.05,0.02 -0.06,0.02 -0.03,0.01 h -0.03 l -0.03,0.01 -0.03,0.01 h -0.03 l -0.04,0.01 h -0.03 l -0.04,0.01 h -0.04 -0.03 -0.04 -0.04 c -0.4,0 -0.78,-0.16 -1.09,-0.53 v 0.51 h -0.56 v -3.13 h 0.61 v 1.69 c 0,0.45 0.2,1 0.73,1 0.72,0 0.72,-0.48 0.72,-0.68 v -2.01 h 0.61 z"
         id="path79252" /><path
         style="fill:#000000;stroke-width:0"
         inkscape:connector-curvature="0"
         d="m 242.89,710.37 h 0.03 0.03 0.03 l 0.01,0.01 h 0.02 0.01 0.02 0.01 0.02 l 0.01,0.01 h 0.01 0.02 l 0.01,0.01 h 0.01 l 0.01,0.01 h 0.01 l 0.01,0.01 0.01,0.01 0.01,0.01 0.01,0.01 0.01,0.01 v 0 l 0.01,0.01 v 0 0.01 l 0.01,0.01 v 0 0.01 0.01 0 l 0.01,0.01 v 0.01 0.01 0.01 0 0.01 0.01 c 0,0.2 -0.19,0.2 -0.33,0.2 h -5.96 c -0.14,0 -0.32,0 -0.32,-0.2 0,-0.2 0.18,-0.2 0.33,-0.2 z"
         id="path79254" /><path
         style="fill:#000000;stroke-width:0"
         inkscape:connector-curvature="0"
         d="m 242.9,708.45 h 0.02 0.01 0.03 0.02 0.02 0.01 0.02 0.01 0.01 l 0.02,0.01 h 0.01 0.01 l 0.02,0.01 h 0.01 l 0.01,0.01 h 0.01 l 0.01,0.01 h 0.01 l 0.01,0.01 0.01,0.01 0.01,0.01 h 0.01 v 0.01 0.01 h 0.01 v 0.01 0 l 0.01,0.01 v 0.01 0 0.01 0.01 h 0.01 v 0.01 0.01 0.01 0.01 0.01 0.01 c 0,0.19 -0.19,0.19 -0.34,0.19 h -5.94 c -0.15,0 -0.33,0 -0.33,-0.19 0,-0.2 0.18,-0.2 0.32,-0.2 z"
         id="path79256" /><path
         style="fill:#000000;stroke-width:0"
         inkscape:connector-curvature="0"
         d="m 249.55,713.86 h -0.2 c -0.59,-0.61 -1.41,-0.64 -1.89,-0.65 v -0.58 c 0.33,0.01 0.8,0.03 1.3,0.24 v -5.17 h -1.24 v -0.58 h 3.27 v 0.58 h -1.24 z"
         id="path79258" /><path
         style="fill:#000000;stroke-width:0"
         inkscape:connector-curvature="0"
         d="m 256.1,710.36 v 0.15 0.15 0.16 l -0.01,0.15 -0.01,0.16 -0.01,0.16 -0.02,0.16 -0.02,0.16 -0.03,0.16 -0.03,0.16 -0.03,0.17 -0.05,0.15 -0.05,0.16 -0.03,0.08 -0.03,0.08 -0.03,0.08 -0.03,0.07 -0.04,0.08 -0.04,0.08 c -0.4,0.74 -1.09,0.98 -1.6,0.98 l -0.01,-0.61 c 0.78,0 1.04,-0.75 1.11,-0.93 0.19,-0.56 0.19,-1.22 0.19,-1.84 0,-0.65 0,-1.28 -0.18,-1.9 -0.26,-0.91 -0.79,-1.07 -1.11,-1.07 v 0 c -0.52,0 -0.92,0.38 -1.12,1.09 -0.16,0.57 -0.17,1.11 -0.17,1.88 0,0.63 0,1.23 0.17,1.77 0.06,0.19 0.31,1 1.11,1 l 0.01,0.61 c -0.58,0 -1.28,-0.27 -1.69,-1.15 -0.33,-0.73 -0.38,-1.55 -0.38,-2.35 0,-0.78 0.04,-1.51 0.34,-2.23 0.4,-0.96 1.16,-1.22 1.72,-1.22 0.73,0 1.36,0.4 1.67,1.09 0.3,0.65 0.4,1.3 0.4,2.36 z"
         id="path79260" /><path
         style="fill:#000000;stroke-width:0"
         inkscape:connector-curvature="0"
         d="m 261.08,710.36 v 0.15 0.15 0.16 l -0.01,0.15 -0.01,0.16 -0.01,0.16 -0.02,0.16 -0.02,0.16 -0.02,0.16 -0.04,0.16 -0.03,0.17 -0.05,0.15 -0.05,0.16 -0.02,0.08 -0.03,0.08 -0.04,0.08 -0.03,0.07 -0.04,0.08 -0.03,0.08 c -0.41,0.74 -1.1,0.98 -1.61,0.98 l -0.01,-0.61 c 0.78,0 1.04,-0.75 1.11,-0.93 0.19,-0.56 0.19,-1.22 0.19,-1.84 0,-0.65 0,-1.28 -0.18,-1.9 -0.26,-0.91 -0.79,-1.07 -1.11,-1.07 v 0 c -0.51,0 -0.92,0.38 -1.12,1.09 -0.16,0.57 -0.17,1.11 -0.17,1.88 0,0.63 0,1.23 0.17,1.77 0.06,0.19 0.31,1 1.11,1 l 0.01,0.61 c -0.58,0 -1.28,-0.27 -1.69,-1.15 -0.33,-0.73 -0.38,-1.55 -0.38,-2.35 0,-0.78 0.04,-1.51 0.34,-2.23 0.4,-0.96 1.16,-1.22 1.72,-1.22 0.73,0 1.36,0.4 1.67,1.09 0.3,0.65 0.4,1.3 0.4,2.36 z"
         id="path79262" /><path
         style="fill:#000000;stroke-width:0"
         inkscape:connector-curvature="0"
         d="m 266.07,710.36 -0.01,0.15 v 0.15 0.16 l -0.01,0.15 -0.01,0.16 -0.01,0.16 -0.02,0.16 -0.02,0.16 -0.02,0.16 -0.03,0.16 -0.04,0.17 -0.05,0.15 -0.05,0.16 -0.02,0.08 -0.03,0.08 -0.04,0.08 -0.03,0.07 -0.03,0.08 -0.04,0.08 c -0.41,0.74 -1.1,0.98 -1.6,0.98 l -0.02,-0.61 c 0.78,0 1.04,-0.75 1.11,-0.93 0.19,-0.56 0.19,-1.22 0.19,-1.84 0,-0.65 0,-1.28 -0.18,-1.9 -0.26,-0.91 -0.79,-1.07 -1.1,-1.07 v 0 c -0.52,0 -0.93,0.38 -1.13,1.09 -0.16,0.57 -0.17,1.11 -0.17,1.88 0,0.63 0,1.23 0.17,1.77 0.06,0.19 0.31,1 1.11,1 l 0.02,0.61 c -0.59,0 -1.29,-0.27 -1.7,-1.15 -0.33,-0.73 -0.37,-1.55 -0.37,-2.35 0,-0.78 0.04,-1.51 0.33,-2.23 0.4,-0.96 1.16,-1.22 1.72,-1.22 0.73,0 1.36,0.4 1.68,1.09 0.29,0.65 0.4,1.3 0.4,2.36 z"
         id="path79264" /><polygon
         style="fill:#000000;stroke-width:0"
         points="269.3,709.83 270.97,711.54 270.07,711.54 268.05,709.47 268.05,714.02 267.33,714.02 267.33,707.12 268.02,707.12 268.02,708.53 268.82,709.35 270.37,707.12 271.18,707.12 "
         id="polygon79266" /><path
         style="fill:#000000;stroke-width:0"
         inkscape:connector-curvature="0"
         d="m 277.86,714.02 h -0.78 l -1.32,-3.4 c -0.16,-0.41 -0.91,-2.32 -1,-2.78 h -0.01 c -0.08,0.4 -0.51,1.49 -0.59,1.73 l -1.73,4.45 h -0.92 l 2.72,-6.9 h 0.91 z"
         id="path79268" /><path
         style="fill:#000000;stroke-width:0"
         inkscape:connector-curvature="0"
         d="m 280.94,714.02 h -0.88 l -2.6,-6.9 h 0.74 l 0.77,2.03 0.2,0.56 0.65,1.8 c 0.21,0.58 0.52,1.43 0.59,1.79 h 0.01 c 0.02,-0.14 0.09,-0.38 0.32,-1.04 l 0.9,-2.55 h -2.47 l -0.2,-0.56 h 2.89 l 0.76,-2.03 h 0.91 z"
         id="path79270" /><path
         style="fill:#000000;stroke-width:0"
         inkscape:connector-curvature="0"
         d="m 226.4,697.41 0.03,0.01 h 0.03 0.03 0.01 0.02 0.01 0.02 0.01 0.01 l 0.02,0.01 h 0.01 0.01 l 0.02,0.01 h 0.01 l 0.01,0.01 h 0.01 l 0.01,0.01 h 0.01 l 0.01,0.01 0.01,0.01 v 0.01 l 0.01,0.01 v 0 l 0.01,0.01 v 0 0.01 0 l 0.01,0.01 v 0 0.01 0.01 0 0.01 0.01 0.01 h 0.01 c 0,0.14 -0.12,0.14 -0.29,0.14 h -1.61 c 0.23,0.85 0.79,1.42 1.7,1.42 h 0.31 c 0.16,0 0.32,0 0.32,0.17 0,0.14 -0.13,0.14 -0.3,0.14 h -0.34 c -1.3,0 -2.63,-0.99 -2.63,-2.51 0,-1.1 0.75,-1.88 1.8,-1.88 0.65,0 1.29,0.4 1.29,0.51 0,0.03 -0.01,0.14 -0.1,0.14 -0.02,0 -0.04,0 -0.13,-0.06 -0.3,-0.2 -0.67,-0.37 -1.04,-0.37 -0.58,0 -1.07,0.42 -1.07,1.29 0,0.35 0.08,0.73 0.11,0.84 z"
         id="path79272" /><path
         style="fill:#000000;stroke-width:0"
         inkscape:connector-curvature="0"
         d="m 237.08,698.42 h 0.03 0.03 0.02 0.02 0.01 0.02 0.01 l 0.02,0.01 h 0.01 0.01 0.02 l 0.01,0.01 h 0.01 l 0.02,0.01 h 0.01 l 0.01,0.01 0.01,0.01 h 0.01 l 0.01,0.01 0.01,0.01 v 0.01 l 0.01,0.01 v 0 0.01 h 0.01 v 0.01 0.01 h 0.01 v 0.01 0.01 0.01 0 0.01 0.01 l 0.01,0.01 v 0.01 0.01 c 0,0.2 -0.19,0.2 -0.33,0.2 h -5.96 c -0.14,0 -0.33,0 -0.33,-0.2 0,-0.2 0.19,-0.2 0.34,-0.2 z"
         id="path79274" /><path
         style="fill:#000000;stroke-width:0"
         inkscape:connector-curvature="0"
         d="m 237.09,696.49 h 0.01 0.01 0.03 0.03 0.01 0.02 l 0.01,0.01 h 0.02 0.01 0.01 0.02 l 0.01,0.01 h 0.01 l 0.01,0.01 h 0.02 l 0.01,0.01 h 0.01 l 0.01,0.01 0.01,0.01 0.01,0.01 h 0.01 v 0.01 0 l 0.01,0.01 v 0.01 0 l 0.01,0.01 v 0 0.01 l 0.01,0.01 v 0 0.01 0.01 0.01 0 0.01 l 0.01,0.01 v 0.01 0.01 c 0,0.2 -0.19,0.2 -0.34,0.2 h -5.94 c -0.15,0 -0.34,0 -0.34,-0.2 0,-0.2 0.19,-0.2 0.33,-0.2 z"
         id="path79276" /><path
         style="fill:#000000;stroke-width:0"
         inkscape:connector-curvature="0"
         d="m 242.28,701.05 h 2.62 v 0.64 h -3.33 v -3.67 h 0.65 c 0.17,0.4 0.54,0.79 1.12,0.79 0.46,0 1,-0.41 1,-1.6 0,-1.65 -1.21,-1.65 -1.3,-1.65 -0.67,0 -1.28,0.39 -1.56,0.92 l -0.33,-0.56 c 0.4,-0.56 1.09,-0.97 1.9,-0.97 1.18,0 2.18,0.98 2.18,2.24 0,1.24 -0.86,2.22 -1.88,2.22 -0.4,0 -0.78,-0.15 -1.07,-0.41 z"
         id="path79278" /><path
         style="fill:#000000;stroke-width:0"
         inkscape:connector-curvature="0"
         d="m 252.56,702.24 v 0.01 l 0.01,0.01 v 0.01 h 0.01 v 0.01 l 0.01,0.01 v 0 0.01 l 0.01,0.01 v 0 0.01 h 0.01 v 0.01 0 l 0.01,0.01 v 0 0.01 0 0.01 h 0.01 v 0.01 0 0.01 0 0.01 0 0.01 h 0.01 v 0.01 0 0.01 0 c 0,0.11 -0.09,0.2 -0.2,0.2 -0.1,0 -0.15,-0.07 -0.21,-0.14 -0.5,-0.67 -1.17,-0.94 -1.89,-0.94 -0.7,0 -1.32,0.25 -1.86,0.76 -0.19,0.17 -0.4,0.32 -0.72,0.32 l 0.01,-0.22 c 0.53,0 1.03,-0.73 1.03,-1.78 0,-1.07 -0.51,-1.78 -1.03,-1.78 v 0 c -0.2,0 -0.86,0.13 -0.86,1.77 0,1.66 0.65,1.79 0.86,1.79 l -0.01,0.22 c -0.75,0 -1.46,-0.83 -1.46,-2 0,-1.2 0.71,-2 1.46,-2 0.73,0 1.29,0.88 1.29,1.99 0,0.14 0,0.61 -0.2,1.13 0.64,-0.37 1.14,-0.42 1.5,-0.42 0.75,0 1.26,0.31 1.32,0.35 l 0.01,-0.01 -4.47,-6.65 c -0.09,-0.13 -0.09,-0.18 -0.09,-0.2 0,-0.11 0.1,-0.2 0.2,-0.2 0.1,0 0.12,0.04 0.2,0.15 z"
         id="path79280" /><path
         style="fill:#000000;stroke-width:0"
         inkscape:connector-curvature="0"
         d="m 253.46,696.61 v 0.11 0.1 l -0.01,0.1 -0.01,0.1 -0.02,0.1 -0.02,0.1 -0.02,0.09 -0.02,0.1 -0.03,0.09 -0.03,0.08 -0.03,0.09 -0.03,0.08 -0.04,0.08 -0.04,0.07 -0.04,0.07 -0.04,0.07 -0.04,0.07 -0.05,0.06 -0.05,0.06 -0.05,0.05 -0.05,0.05 -0.06,0.05 -0.05,0.04 -0.06,0.04 -0.06,0.04 -0.06,0.03 -0.06,0.03 -0.06,0.02 -0.07,0.01 -0.06,0.02 h -0.07 l -0.06,0.01 c -0.76,0 -1.46,-0.84 -1.46,-2 0,-1.2 0.71,-2.01 1.46,-2.01 l 0.01,0.22 c -0.2,0 -0.86,0.13 -0.86,1.78 0,1.66 0.65,1.79 0.86,1.79 0.53,0 1.03,-0.74 1.03,-1.78 0,-1.07 -0.51,-1.79 -1.03,-1.79 v 0 l -0.01,-0.22 c 0.73,0 1.29,0.89 1.29,2 z"
         id="path79282" /></g>
    <text
       xml:space="preserve"
       style="font-style:normal;font-variant:normal;font-weight:normal;font-stretch:normal;line-height:0%;font-family:'Latin Modern Sans';-inkscape-font-specification:'Latin Modern Sans';letter-spacing:0px;word-spacing:0px;writing-mode:lr-tb;fill:#000000;fill-opacity:1;stroke:none"
       x="219.05672"
       y="305.66675"
       id="text3657"><tspan
         sodipodi:role="line"
         id="tspan3659"
         x="219.05672"
         y="305.66675"
         style="color:#000000;font-style:normal;font-variant:normal;font-weight:normal;font-stretch:normal;font-size:11px;line-height:125%;font-family:Consolas;-inkscape-font-specification:Consolas;text-indent:0;text-align:start;text-decoration:none;text-decoration-line:none;letter-spacing:0px;word-spacing:0px;text-transform:none;writing-mode:lr-tb;direction:ltr;baseline-shift:baseline;text-anchor:start;display:inline;overflow:visible;visibility:visible;fill:#000000;fill-opacity:1;fill-rule:nonzero;stroke:none;marker:none;enable-background:accumulate">1</tspan></text>
    <text
       xml:space="preserve"
       style="font-style:normal;font-variant:normal;font-weight:normal;font-stretch:normal;line-height:0%;font-family:'Latin Modern Sans';-inkscape-font-specification:'Latin Modern Sans';letter-spacing:0px;word-spacing:0px;writing-mode:lr-tb;fill:#000000;fill-opacity:1;stroke:none"
       x="343.0199"
       y="305.66675"
       id="text3657-6"><tspan
         sodipodi:role="line"
         id="tspan3659-3"
         x="343.0199"
         y="305.66675"
         style="color:#000000;font-style:normal;font-variant:normal;font-weight:normal;font-stretch:normal;font-size:11px;line-height:125%;font-family:Consolas;-inkscape-font-specification:Consolas;text-indent:0;text-align:start;text-decoration:none;text-decoration-line:none;letter-spacing:0px;word-spacing:0px;text-transform:none;writing-mode:lr-tb;direction:ltr;baseline-shift:baseline;text-anchor:start;display:inline;overflow:visible;visibility:visible;fill:#000000;fill-opacity:1;fill-rule:nonzero;stroke:none;marker:none;enable-background:accumulate">2</tspan></text>
    <text
       xml:space="preserve"
       style="font-style:normal;font-variant:normal;font-weight:normal;font-stretch:normal;line-height:0%;font-family:'Latin Modern Sans';-inkscape-font-specification:'Latin Modern Sans';letter-spacing:0px;word-spacing:0px;writing-mode:lr-tb;fill:#000000;fill-opacity:1;stroke:none"
       x="232.46181"
       y="307.60764"
       id="text3657-0"><tspan
         sodipodi:role="line"
         id="tspan3659-1"
         x="232.46181"
         y="307.60764"
         style="color:#000000;font-style:normal;font-variant:normal;font-weight:normal;font-stretch:normal;font-size:11px;line-height:125%;font-family:Consolas;-inkscape-font-specification:Consolas;text-indent:0;text-align:start;text-decoration:none;text-decoration-line:none;letter-spacing:0px;word-spacing:0px;text-transform:none;writing-mode:lr-tb;direction:ltr;baseline-shift:baseline;text-anchor:start;display:inline;overflow:visible;visibility:visible;fill:#000000;fill-opacity:1;fill-rule:nonzero;stroke:none;marker:none;enable-background:accumulate">p_g_1</tspan></text>
    <text
       xml:space="preserve"
       style="font-style:normal;font-variant:normal;font-weight:normal;font-stretch:normal;line-height:0%;font-family:'Latin Modern Sans';-inkscape-font-specification:'Latin Modern Sans';letter-spacing:0px;word-spacing:0px;writing-mode:lr-tb;fill:#000000;fill-opacity:1;stroke:none"
       x="211.94464"
       y="284.22931"
       id="text3657-0-9"><tspan
         sodipodi:role="line"
         id="tspan3659-1-6"
         x="211.94464"
         y="284.22931"
         style="color:#000000;font-style:normal;font-variant:normal;font-weight:normal;font-stretch:normal;font-size:11px;line-height:125%;font-family:Consolas;-inkscape-font-specification:Consolas;text-indent:0;text-align:start;text-decoration:none;text-decoration-line:none;letter-spacing:0px;word-spacing:0px;text-transform:none;writing-mode:lr-tb;direction:ltr;baseline-shift:baseline;text-anchor:start;display:inline;overflow:visible;visibility:visible;fill:#000000;fill-opacity:1;fill-rule:nonzero;stroke:none;marker:none;enable-background:accumulate">V_1</tspan></text>
    <text
       xml:space="preserve"
       style="font-style:normal;font-variant:normal;font-weight:normal;font-stretch:normal;line-height:0%;font-family:'Latin Modern Sans';-inkscape-font-specification:'Latin Modern Sans';letter-spacing:0px;word-spacing:0px;writing-mode:lr-tb;fill:#000000;fill-opacity:1;stroke:none"
       x="171.39386"
       y="360.36383"
       id="text3657-0-7"><tspan
         sodipodi:role="line"
         id="tspan3659-1-2"
         x="171.39386"
         y="360.36383"
         style="color:#000000;font-style:normal;font-variant:normal;font-weight:normal;font-stretch:normal;font-size:11px;line-height:125%;font-family:Consolas;-inkscape-font-specification:Consolas;text-indent:0;text-align:start;text-decoration:none;text-decoration-line:none;letter-spacing:0px;word-spacing:0px;text-transform:none;writing-mode:lr-tb;direction:ltr;baseline-shift:baseline;text-anchor:start;display:inline;overflow:visible;visibility:visible;fill:#000000;fill-opacity:1;fill-rule:nonzero;stroke:none;marker:none;enable-background:accumulate">delta_1</tspan></text>
    <text
       xml:space="preserve"
       style="font-style:normal;font-variant:normal;font-weight:normal;font-stretch:normal;line-height:0%;font-family:'Latin Modern Sans';-inkscape-font-specification:'Latin Modern Sans';letter-spacing:0px;word-spacing:0px;writing-mode:lr-tb;fill:#000000;fill-opacity:1;stroke:none"
       x="171.7533"
       y="372.40445"
       id="text3657-0-7-2"><tspan
         sodipodi:role="line"
         id="tspan3659-1-2-3"
         x="171.7533"
         y="372.40445"
         style="color:#000000;font-style:normal;font-variant:normal;font-weight:normal;font-stretch:normal;font-size:11px;line-height:125%;font-family:Consolas;-inkscape-font-specification:Consolas;text-indent:0;text-align:start;text-decoration:none;text-decoration-line:none;letter-spacing:0px;word-spacing:0px;text-transform:none;writing-mode:lr-tb;direction:ltr;baseline-shift:baseline;text-anchor:start;display:inline;overflow:visible;visibility:visible;fill:#000000;fill-opacity:1;fill-rule:nonzero;stroke:none;marker:none;enable-background:accumulate">omega_1</tspan></text>
    <text
       xml:space="preserve"
       style="font-style:normal;font-variant:normal;font-weight:normal;font-stretch:normal;line-height:0%;font-family:'Latin Modern Sans';-inkscape-font-specification:'Latin Modern Sans';letter-spacing:0px;word-spacing:0px;writing-mode:lr-tb;fill:#000000;fill-opacity:1;stroke:none"
       x="148.60672"
       y="299.03009"
       id="text3657-0-7-9"><tspan
         sodipodi:role="line"
         id="tspan3659-1-2-7"
         x="148.60672"
         y="299.03009"
         style="color:#000000;font-style:normal;font-variant:normal;font-weight:normal;font-stretch:normal;font-size:11px;line-height:125%;font-family:Consolas;-inkscape-font-specification:Consolas;text-indent:0;text-align:start;text-decoration:none;text-decoration-line:none;letter-spacing:0px;word-spacing:0px;text-transform:none;writing-mode:lr-tb;direction:ltr;baseline-shift:baseline;text-anchor:start;display:inline;overflow:visible;visibility:visible;fill:#000000;fill-opacity:1;fill-rule:nonzero;stroke:none;marker:none;enable-background:accumulate">p_m_1</tspan></text>
    <g
       transform="matrix(2,0,0,2,-807.90325,-44.860858)"
       id="g16785-7-7-7">
      <g
         transform="translate(450,19.999994)"
         id="g40949-7-1-9-6">
        <path
           inkscape:connector-curvature="0"
           id="path4610-1-126-5-5"
           d="m 65,167.36218 h 5"
           style="fill:none;stroke:#000000;stroke-width:0.5px;stroke-linecap:butt;stroke-linejoin:miter;stroke-opacity:1" />
        <path
           inkscape:connector-curvature="0"
           id="path4612-5-3-6-0"
           d="m 65,157.36218 v 20"
           style="fill:none;stroke:#000000;stroke-width:1;stroke-linecap:butt;stroke-linejoin:miter;stroke-opacity:1" />
      </g>
    </g>
    <path
       style="fill:none;stroke:#000000;stroke-width:1px;stroke-linecap:butt;stroke-linejoin:miter;stroke-opacity:1"
       d="m 222.09675,329.86348 h -14"
       id="path5516-5-6-5"
       inkscape:connector-curvature="0" />
    <g
       transform="matrix(-2,0,0,2,1386.1217,-44.86086)"
       id="g16785-7-9-7-2">
      <g
         transform="translate(450,19.999994)"
         id="g40949-7-1-3-1-0">
        <path
           inkscape:connector-curvature="0"
           id="path4610-1-126-6-3-4"
           d="m 65,167.36218 h 5"
           style="fill:none;stroke:#000000;stroke-width:0.5px;stroke-linecap:butt;stroke-linejoin:miter;stroke-opacity:1" />
      </g>
    </g>
    <path
       style="fill:none;stroke:#000000;stroke-width:1.06066px;stroke-linecap:butt;stroke-linejoin:miter;stroke-opacity:1"
       d="M 378.62168,329.86348 H 356.1217"
       id="path5516-53-3-8"
       inkscape:connector-curvature="0" />
    <g
       id="g4601-5-0-4-4"
       transform="matrix(2,0,0,2,128.59675,-4.860878)"
       style="stroke:none">
      <g
         id="g16145-1-5-0-2-2-2"
         transform="rotate(90,150,272.36218)"
         style="stroke:none">
        <g
           id="g15315-0-9-6-7-1-7"
           transform="translate(-35)"
           style="stroke:none">
          <path
             d="m 70,392.35988 c 0,5.52061 4.477217,10.0023 9.999424,10.0023 5.522209,0 10.000576,-4.48169 10.000576,-10.0023 0,-5.52062 -4.478367,-9.9977 -10.000576,-9.9977 -5.522207,0 -9.999424,4.47708 -9.999424,9.9977"
             style="display:inline;fill:#337ab7;stroke:none"
             id="path70904-5-5-87-7-3-5"
             inkscape:connector-curvature="0" />
          <path
             inkscape:connector-curvature="0"
             id="path15311-4-1-7-6-6-6"
             d="m 80,382.36218 v -5"
             style="fill:none;stroke:none" />
          <g
             id="g70398-5-5-7-4-4-3"
             transform="matrix(1.1522065,0,0,1.25,67.784307,75.27218)"
             style="stroke:none" />
        </g>
      </g>
      <text
         xml:space="preserve"
         style="font-style:normal;font-variant:normal;font-weight:normal;font-stretch:normal;line-height:0%;font-family:Arial;-inkscape-font-specification:Arial;letter-spacing:0px;word-spacing:0px;fill:#ffffff;fill-opacity:1;stroke:none"
         x="24.235838"
         y="172.73083"
         id="text4597-7-0-8-9"><tspan
           sodipodi:role="line"
           id="tspan4599-9-9-5-0"
           x="24.235838"
           y="172.73083"
           style="font-size:15px;line-height:1.25;fill:#ffffff;stroke:none">G</tspan></text>
    </g>
    <path
       style="fill:none;stroke:#000000;stroke-width:1px;stroke-linecap:butt;stroke-linejoin:miter;stroke-opacity:1"
       d="m 232.09675,329.86349 h 4.74927 l 7.05357,-5 m 0.92857,5 h 76.87416 l 8.20749,-4.54569 m 0.10596,4.54569 h 16.10593"
       id="path19825-3"
       inkscape:connector-curvature="0"
       sodipodi:nodetypes="cccccccc" />
    <path
       style="fill:none;stroke:#000000;stroke-width:1px;stroke-linecap:butt;stroke-linejoin:miter;stroke-opacity:1"
       d="M 346.40978,329.86348 H 356.6217"
       id="path5516-5-6-5-6"
       inkscape:connector-curvature="0" />
    <g
       id="g4601-5-0-4-4-2"
       transform="matrix(-2,0,0,2,436.1217,-4.86088)"
       style="stroke:none">
      <g
         id="g16145-1-5-0-2-2-2-6"
         transform="rotate(90,150,272.36218)"
         style="stroke:none">
        <g
           id="g15315-0-9-6-7-1-7-1"
           transform="translate(-35)"
           style="stroke:none">
          <path
             d="m 70,392.35988 c 0,5.52061 4.477217,10.0023 9.999424,10.0023 5.522209,0 10.000576,-4.48169 10.000576,-10.0023 0,-5.52062 -4.478367,-9.9977 -10.000576,-9.9977 -5.522207,0 -9.999424,4.47708 -9.999424,9.9977"
             style="display:inline;fill:#5cb85c;stroke:none"
             id="path70904-5-5-87-7-3-5-8"
             inkscape:connector-curvature="0" />
          <path
             inkscape:connector-curvature="0"
             id="path15311-4-1-7-6-6-6-7"
             d="m 80,382.36218 v -5"
             style="fill:none;stroke:none" />
          <g
             id="g70398-5-5-7-4-4-3-9"
             transform="matrix(1.1522065,0,0,1.25,67.784307,75.27218)"
             style="stroke:none" />
        </g>
      </g>
    </g>
    <g
       ns0:preamble="/home/jmmauricio/Documents/public/jmmauricio6/quilombo/svg/serif_inkscape_template.tex"
       ns0:text="$\\infty$"
       word-spacing="normal"
       letter-spacing="normal"
       font-size-adjust="none"
       font-stretch="normal"
       font-weight="normal"
       font-variant="normal"
       font-style="normal"
       stroke-miterlimit="10.433"
       xml:space="preserve"
       transform="matrix(2.4099854,0,0,-2.4674946,-174.04043,2080.5989)"
       id="content"
       style="font-style:normal;font-variant:normal;font-weight:normal;font-stretch:normal;letter-spacing:normal;word-spacing:normal;text-anchor:start;fill:none;stroke:#000000;stroke-width:0.410076;stroke-linecap:butt;stroke-linejoin:miter;stroke-miterlimit:10.433;stroke-dasharray:none;stroke-dashoffset:0;stroke-opacity:1"><path
         id="path3554"
         d="m 228.37443,710.06945 -0.05,0.06 -0.05,0.06 -0.04,0.05 -0.05,0.06 -0.04,0.05 -0.04,0.05 -0.03,0.04 -0.04,0.04 -0.03,0.05 -0.03,0.04 -0.03,0.03 -0.03,0.04 -0.03,0.03 -0.03,0.03 -0.03,0.03 -0.02,0.03 -0.03,0.03 -0.02,0.03 -0.03,0.02 -0.02,0.03 -0.05,0.05 -0.04,0.04 -0.05,0.05 -0.05,0.04 -0.05,0.04 -0.03,0.03 -0.03,0.02 c -0.56,0.45 -1.11,0.63 -1.62,0.63 -1.16,0 -1.92,-1.1 -1.92,-2.26 h 0.22 c 0,0.97 0.67,1.78 1.54,1.78 0.58,0 1.02,-0.42 1.23,-0.63 0.25,-0.26 0.48,-0.57 1.09,-1.36 v 0 c -0.41,-0.71 -1.15,-1.72 -2.27,-1.72 -1.05,0 -1.59,1.04 -1.59,1.93 h -0.22 c 0,-1.14 0.73,-2.24 1.88,-2.24 1.14,0 1.97,0.9 2.46,1.69 0.53,-0.67 0.65,-0.82 0.96,-1.07 0.56,-0.45 1.12,-0.62 1.62,-0.62 1.17,0 1.92,1.09 1.92,2.25 h -0.22 c 0,-0.97 -0.66,-1.78 -1.54,-1.78 -0.57,0 -1.02,0.42 -1.23,0.63 -0.25,0.27 -0.48,0.57 -1.09,1.36 v 0 c 0.41,0.72 1.15,1.72 2.27,1.72 1.06,0 1.59,-1.04 1.59,-1.93 h 0.22 c 0,1.14 -0.73,2.25 -1.88,2.25 -1.14,0 -1.97,-0.91 -2.45,-1.7 z"
         inkscape:connector-curvature="0"
         style="fill:#000000;stroke-width:0" /></g>
    <path
       style="fill:none;stroke:#ff0000;stroke-width:1px;stroke-linecap:butt;stroke-linejoin:miter;stroke-opacity:1;marker-end:url(#marker7868-5o)"
       d="m 256.23685,324.33915 -8.36517,7.41782 4.82963,-1.29409 -8.36516,7.41782"
       id="path8838-0"
       inkscape:connector-curvature="0"
       sodipodi:nodetypes="cccc" />
    <path
       style="fill:none;stroke:#000000;stroke-width:1px;stroke-linecap:butt;stroke-linejoin:miter;stroke-opacity:1;marker-end:url(#marker7868-5)"
       d="m 162.88323,304.56086 h 16.66752"
       id="path168" />
    <path
       style="fill:none;stroke:#000000;stroke-width:1px;stroke-linecap:butt;stroke-linejoin:miter;stroke-opacity:1;marker-end:url(#marker7868-5-2)"
       d="m 232.09675,316.35895 h 16.66752"
       id="path168-2" />
    <g
       transform="matrix(2,0,0,2,-683.8783,-44.36086)"
       id="g16785-7-7-7-2">
      <g
         transform="translate(450,19.999994)"
         id="g40949-7-1-9-6-7">
        <path
           inkscape:connector-curvature="0"
           id="path4610-1-126-5-5-5"
           d="m 65,167.36218 h 5"
           style="fill:none;stroke:#000000;stroke-width:0.5px;stroke-linecap:butt;stroke-linejoin:miter;stroke-opacity:1" />
        <path
           inkscape:connector-curvature="0"
           id="path4612-5-3-6-0-8"
           d="m 65,157.36218 v 20"
           style="fill:none;stroke:#000000;stroke-width:1;stroke-linecap:butt;stroke-linejoin:miter;stroke-opacity:1" />
      </g>
    </g>
  </g>
</svg>
